<mxfile host="app.diagrams.net" modified="2021-11-12T11:04:25.781Z" agent="5.0 (Windows NT 10.0; Win64; x64) AppleWebKit/537.36 (KHTML, like Gecko) Chrome/94.0.4606.81 Safari/537.36" etag="NndsK-30qa_zlioAO8VA" version="15.7.1" type="github">
  <diagram id="hLHLoN-IPIQUe7Qcgd2w" name="内存管理">
    <mxGraphModel dx="2249" dy="706" grid="1" gridSize="10" guides="1" tooltips="1" connect="1" arrows="1" fold="1" page="1" pageScale="1" pageWidth="827" pageHeight="1169" math="0" shadow="0">
      <root>
        <mxCell id="0" />
        <mxCell id="1" parent="0" />
        <mxCell id="f6-gYmPiY1kBjv2ZKiJ3-2" value="" style="endArrow=none;html=1;rounded=0;" edge="1" parent="1">
          <mxGeometry width="50" height="50" relative="1" as="geometry">
            <mxPoint x="-80" y="40" as="sourcePoint" />
            <mxPoint x="560" y="40" as="targetPoint" />
          </mxGeometry>
        </mxCell>
        <mxCell id="f6-gYmPiY1kBjv2ZKiJ3-3" value="" style="endArrow=none;html=1;rounded=0;" edge="1" parent="1">
          <mxGeometry width="50" height="50" relative="1" as="geometry">
            <mxPoint x="-80" y="160" as="sourcePoint" />
            <mxPoint x="560" y="160" as="targetPoint" />
          </mxGeometry>
        </mxCell>
        <mxCell id="f6-gYmPiY1kBjv2ZKiJ3-5" value="" style="endArrow=none;html=1;rounded=0;" edge="1" parent="1">
          <mxGeometry width="50" height="50" relative="1" as="geometry">
            <mxPoint x="-80" y="400" as="sourcePoint" />
            <mxPoint x="560" y="400" as="targetPoint" />
          </mxGeometry>
        </mxCell>
        <mxCell id="f6-gYmPiY1kBjv2ZKiJ3-6" value="&lt;b style=&quot;font-size: 13px;&quot;&gt;用户空间&lt;/b&gt;" style="text;html=1;strokeColor=none;fillColor=none;align=center;verticalAlign=middle;whiteSpace=wrap;rounded=0;fontSize=13;" vertex="1" parent="1">
          <mxGeometry x="-40" y="40" width="80" height="40" as="geometry" />
        </mxCell>
        <mxCell id="f6-gYmPiY1kBjv2ZKiJ3-7" value="&lt;b style=&quot;font-size: 13px&quot;&gt;系统调用&lt;/b&gt;" style="text;html=1;strokeColor=none;fillColor=none;align=center;verticalAlign=middle;whiteSpace=wrap;rounded=0;fontSize=13;" vertex="1" parent="1">
          <mxGeometry x="-40" y="160" width="80" height="40" as="geometry" />
        </mxCell>
        <mxCell id="f6-gYmPiY1kBjv2ZKiJ3-8" value="&lt;b style=&quot;font-size: 13px&quot;&gt;内核空间&lt;/b&gt;" style="text;html=1;strokeColor=none;fillColor=none;align=center;verticalAlign=middle;whiteSpace=wrap;rounded=0;fontSize=13;" vertex="1" parent="1">
          <mxGeometry x="-40" y="280" width="80" height="40" as="geometry" />
        </mxCell>
        <mxCell id="f6-gYmPiY1kBjv2ZKiJ3-13" style="edgeStyle=orthogonalEdgeStyle;rounded=0;orthogonalLoop=1;jettySize=auto;html=1;entryX=1;entryY=0;entryDx=0;entryDy=0;fontSize=14;exitX=1;exitY=0.5;exitDx=0;exitDy=0;strokeColor=#009999;strokeWidth=2;" edge="1" parent="1" source="f6-gYmPiY1kBjv2ZKiJ3-9" target="f6-gYmPiY1kBjv2ZKiJ3-10">
          <mxGeometry relative="1" as="geometry">
            <Array as="points">
              <mxPoint x="520" y="80" />
              <mxPoint x="520" y="240" />
            </Array>
          </mxGeometry>
        </mxCell>
        <mxCell id="f6-gYmPiY1kBjv2ZKiJ3-9" value="&lt;font style=&quot;font-size: 14px&quot;&gt;&amp;nbsp;&lt;font color=&quot;#003300&quot;&gt;&lt;b&gt;0XBFFF FFFF&lt;br&gt;&lt;/b&gt;&lt;/font&gt;&lt;br&gt;调用malloc函数进行内存分配&lt;br&gt;&lt;br&gt;&lt;b&gt;&lt;font color=&quot;#003300&quot;&gt;0x0000 0000&lt;/font&gt;&lt;/b&gt;&lt;br&gt;&lt;/font&gt;" style="rounded=0;whiteSpace=wrap;html=1;fontSize=13;align=left;strokeColor=default;" vertex="1" parent="1">
          <mxGeometry x="40" y="40" width="400" height="80" as="geometry" />
        </mxCell>
        <mxCell id="f6-gYmPiY1kBjv2ZKiJ3-15" style="edgeStyle=orthogonalEdgeStyle;rounded=0;orthogonalLoop=1;jettySize=auto;html=1;entryX=1;entryY=0.75;entryDx=0;entryDy=0;fontSize=14;fontColor=#003300;exitX=1;exitY=0.5;exitDx=0;exitDy=0;strokeWidth=2;strokeColor=#009999;" edge="1" parent="1" source="f6-gYmPiY1kBjv2ZKiJ3-10" target="f6-gYmPiY1kBjv2ZKiJ3-12">
          <mxGeometry relative="1" as="geometry">
            <Array as="points">
              <mxPoint x="520" y="260" />
              <mxPoint x="520" y="340" />
            </Array>
          </mxGeometry>
        </mxCell>
        <mxCell id="f6-gYmPiY1kBjv2ZKiJ3-10" value="&lt;font style=&quot;font-size: 14px&quot;&gt;&amp;nbsp;内核和用户层的接口，brk() ，sbrk(),，mmap()，munmap()&lt;/font&gt;" style="rounded=0;whiteSpace=wrap;html=1;fontSize=13;align=left;" vertex="1" parent="1">
          <mxGeometry x="40" y="240" width="400" height="40" as="geometry" />
        </mxCell>
        <mxCell id="f6-gYmPiY1kBjv2ZKiJ3-11" value="" style="endArrow=none;html=1;rounded=0;" edge="1" parent="1">
          <mxGeometry width="50" height="50" relative="1" as="geometry">
            <mxPoint x="-80" y="280" as="sourcePoint" />
            <mxPoint x="560" y="280" as="targetPoint" />
          </mxGeometry>
        </mxCell>
        <mxCell id="f6-gYmPiY1kBjv2ZKiJ3-12" value="&lt;font style=&quot;font-size: 14px&quot;&gt;&amp;nbsp;&lt;b&gt;&lt;font color=&quot;#003300&quot;&gt;0xFFFF FFFF&lt;/font&gt;&lt;/b&gt;&lt;br&gt;&lt;br&gt;内核内存管理，kmalloc()，vmalloc()&lt;br&gt;&lt;br&gt;&lt;b&gt;&lt;font color=&quot;#006600&quot;&gt;0xC000 0000&lt;/font&gt;&lt;/b&gt;&lt;br&gt;&lt;/font&gt;" style="rounded=0;whiteSpace=wrap;html=1;fontSize=13;align=left;" vertex="1" parent="1">
          <mxGeometry x="40" y="281" width="400" height="79" as="geometry" />
        </mxCell>
      </root>
    </mxGraphModel>
  </diagram>
</mxfile>
